<?xml version="1.0" encoding="UTF-8" standalone="no"?>
<!DOCTYPE svg PUBLIC "-//W3C//DTD SVG 1.1//EN"
 "http://www.w3.org/Graphics/SVG/1.1/DTD/svg11.dtd">
<!-- Generated by graphviz version 2.47.0 (20210316.0004)
 -->
<!-- Title: dependencies Pages: 1 -->
<svg width="3129pt" height="284pt"
 viewBox="0.00 0.00 3129.00 284.00" xmlns="http://www.w3.org/2000/svg" xmlns:xlink="http://www.w3.org/1999/xlink">
<g id="graph0" class="graph" transform="scale(1 1) rotate(0) translate(4 280)">
<title>dependencies</title>
<polygon fill="white" stroke="transparent" points="-4,4 -4,-280 3125,-280 3125,4 -4,4"/>
<text text-anchor="start" x="1539.51" y="-42.4" font-family="sans-serif" font-weight="bold" font-size="14.00">Legend</text>
<polygon fill="#ffffb3" stroke="transparent" points="1326.5,-10 1326.5,-30 1346.5,-30 1346.5,-10 1326.5,-10"/>
<text text-anchor="start" x="1350.13" y="-15.4" font-family="sans-serif" font-size="14.00"> &#160;Declarations</text>
<polygon fill="#8dd3c7" stroke="transparent" points="1439.5,-10 1439.5,-30 1459.5,-30 1459.5,-10 1439.5,-10"/>
<text text-anchor="start" x="1463.23" y="-15.4" font-family="sans-serif" font-size="14.00"> &#160;Module</text>
<polygon fill="#80b1d3" stroke="transparent" points="1525.5,-10 1525.5,-30 1545.5,-30 1545.5,-10 1525.5,-10"/>
<text text-anchor="start" x="1549.28" y="-15.4" font-family="sans-serif" font-size="14.00"> &#160;Bootstrap</text>
<polygon fill="#fdb462" stroke="transparent" points="1622.5,-10 1622.5,-30 1642.5,-30 1642.5,-10 1622.5,-10"/>
<text text-anchor="start" x="1646.17" y="-15.4" font-family="sans-serif" font-size="14.00"> &#160;Providers</text>
<polygon fill="#fb8072" stroke="transparent" points="1718.5,-10 1718.5,-30 1738.5,-30 1738.5,-10 1718.5,-10"/>
<text text-anchor="start" x="1742.23" y="-15.4" font-family="sans-serif" font-size="14.00"> &#160;Exports</text>
<g id="clust1" class="cluster">
<title>cluster_AppModule</title>
<polygon fill="none" stroke="black" stroke-dasharray="1,5" points="8,-70 8,-268 3113,-268 3113,-70 8,-70"/>
</g>
<g id="clust2" class="cluster">
<title>cluster_AppModule_declarations</title>
<polygon fill="none" stroke="black" points="168,-78 168,-130 3105,-130 3105,-78 168,-78"/>
</g>
<g id="clust23" class="cluster">
<title>cluster_AppModule_imports</title>
<polygon fill="none" stroke="black" points="16,-78 16,-130 160,-130 160,-78 16,-78"/>
</g>
<g id="clust25" class="cluster">
<title>cluster_AppModule_bootstrap</title>
<polygon fill="none" stroke="black" points="1460,-208 1460,-260 1584,-260 1584,-208 1460,-208"/>
</g>
<!-- AboutUsComponent -->
<g id="node1" class="node">
<title>AboutUsComponent</title>
<polygon fill="#ffffb3" stroke="black" points="3096.88,-122 2965.12,-122 2965.12,-86 3096.88,-86 3096.88,-122"/>
<text text-anchor="middle" x="3031" y="-99.8" font-family="Times,serif" font-size="14.00">AboutUsComponent</text>
</g>
<!-- AppModule -->
<g id="node21" class="node">
<title>AppModule</title>
<polygon fill="#8dd3c7" stroke="black" points="1563.66,-187 1560.66,-191 1539.66,-191 1536.66,-187 1480.34,-187 1480.34,-151 1563.66,-151 1563.66,-187"/>
<text text-anchor="middle" x="1522" y="-164.8" font-family="Times,serif" font-size="14.00">AppModule</text>
</g>
<!-- AboutUsComponent&#45;&gt;AppModule -->
<g id="edge1" class="edge">
<title>AboutUsComponent&#45;&gt;AppModule</title>
<path fill="none" stroke="black" d="M3031,-122.15C3031,-145.76 3031,-184 3031,-184 3031,-184 1573.93,-184 1573.93,-184"/>
<polygon fill="black" stroke="black" points="1573.93,-180.5 1563.93,-184 1573.93,-187.5 1573.93,-180.5"/>
</g>
<!-- AddDocumentComponent -->
<g id="node2" class="node">
<title>AddDocumentComponent</title>
<polygon fill="#ffffb3" stroke="black" points="2946.76,-122 2783.24,-122 2783.24,-86 2946.76,-86 2946.76,-122"/>
<text text-anchor="middle" x="2865" y="-99.8" font-family="Times,serif" font-size="14.00">AddDocumentComponent</text>
</g>
<!-- AddDocumentComponent&#45;&gt;AppModule -->
<g id="edge2" class="edge">
<title>AddDocumentComponent&#45;&gt;AppModule</title>
<path fill="none" stroke="black" d="M2865,-122.25C2865,-145.02 2865,-181 2865,-181 2865,-181 1573.67,-181 1573.67,-181"/>
<polygon fill="black" stroke="black" points="1573.67,-177.5 1563.67,-181 1573.67,-184.5 1573.67,-177.5"/>
</g>
<!-- AppComponent -->
<g id="node3" class="node">
<title>AppComponent</title>
<polygon fill="#ffffb3" stroke="black" points="2764.94,-122 2659.06,-122 2659.06,-86 2764.94,-86 2764.94,-122"/>
<text text-anchor="middle" x="2712" y="-99.8" font-family="Times,serif" font-size="14.00">AppComponent</text>
</g>
<!-- AppComponent&#45;&gt;AppModule -->
<g id="edge3" class="edge">
<title>AppComponent&#45;&gt;AppModule</title>
<path fill="none" stroke="black" d="M2712,-122.29C2712,-144.21 2712,-178 2712,-178 2712,-178 1574,-178 1574,-178"/>
<polygon fill="black" stroke="black" points="1574,-174.5 1564,-178 1574,-181.5 1574,-174.5"/>
</g>
<!-- ContactComponent -->
<g id="node4" class="node">
<title>ContactComponent</title>
<polygon fill="#ffffb3" stroke="black" points="2641.38,-122 2516.62,-122 2516.62,-86 2641.38,-86 2641.38,-122"/>
<text text-anchor="middle" x="2579" y="-99.8" font-family="Times,serif" font-size="14.00">ContactComponent</text>
</g>
<!-- ContactComponent&#45;&gt;AppModule -->
<g id="edge4" class="edge">
<title>ContactComponent&#45;&gt;AppModule</title>
<path fill="none" stroke="black" d="M2579,-122.03C2579,-142.77 2579,-174 2579,-174 2579,-174 1573.76,-174 1573.76,-174"/>
<polygon fill="black" stroke="black" points="1573.76,-170.5 1563.76,-174 1573.76,-177.5 1573.76,-170.5"/>
</g>
<!-- DashboardComponent -->
<g id="node5" class="node">
<title>DashboardComponent</title>
<polygon fill="#ffffb3" stroke="black" points="2498.97,-122 2357.03,-122 2357.03,-86 2498.97,-86 2498.97,-122"/>
<text text-anchor="middle" x="2428" y="-99.8" font-family="Times,serif" font-size="14.00">DashboardComponent</text>
</g>
<!-- DashboardComponent&#45;&gt;AppModule -->
<g id="edge5" class="edge">
<title>DashboardComponent&#45;&gt;AppModule</title>
<path fill="none" stroke="black" d="M2428,-122.31C2428,-142.15 2428,-171 2428,-171 2428,-171 1573.88,-171 1573.88,-171"/>
<polygon fill="black" stroke="black" points="1573.88,-167.5 1563.88,-171 1573.88,-174.5 1573.88,-167.5"/>
</g>
<!-- DashnavbarComponent -->
<g id="node6" class="node">
<title>DashnavbarComponent</title>
<polygon fill="#ffffb3" stroke="black" points="2339.19,-122 2190.81,-122 2190.81,-86 2339.19,-86 2339.19,-122"/>
<text text-anchor="middle" x="2265" y="-99.8" font-family="Times,serif" font-size="14.00">DashnavbarComponent</text>
</g>
<!-- DashnavbarComponent&#45;&gt;AppModule -->
<g id="edge6" class="edge">
<title>DashnavbarComponent&#45;&gt;AppModule</title>
<path fill="none" stroke="black" d="M2265,-122.17C2265,-141.09 2265,-168 2265,-168 2265,-168 1573.81,-168 1573.81,-168"/>
<polygon fill="black" stroke="black" points="1573.81,-164.5 1563.81,-168 1573.81,-171.5 1573.81,-164.5"/>
</g>
<!-- DetailsComponent -->
<g id="node7" class="node">
<title>DetailsComponent</title>
<polygon fill="#ffffb3" stroke="black" points="2172.48,-122 2051.52,-122 2051.52,-86 2172.48,-86 2172.48,-122"/>
<text text-anchor="middle" x="2112" y="-99.8" font-family="Times,serif" font-size="14.00">DetailsComponent</text>
</g>
<!-- DetailsComponent&#45;&gt;AppModule -->
<g id="edge7" class="edge">
<title>DetailsComponent&#45;&gt;AppModule</title>
<path fill="none" stroke="black" d="M2112,-122.3C2112,-140.27 2112,-165 2112,-165 2112,-165 1573.96,-165 1573.96,-165"/>
<polygon fill="black" stroke="black" points="1573.96,-161.5 1563.96,-165 1573.96,-168.5 1573.96,-161.5"/>
</g>
<!-- DocumentsComponent -->
<g id="node8" class="node">
<title>DocumentsComponent</title>
<polygon fill="#ffffb3" stroke="black" points="2033.59,-122 1888.41,-122 1888.41,-86 2033.59,-86 2033.59,-122"/>
<text text-anchor="middle" x="1961" y="-99.8" font-family="Times,serif" font-size="14.00">DocumentsComponent</text>
</g>
<!-- DocumentsComponent&#45;&gt;AppModule -->
<g id="edge8" class="edge">
<title>DocumentsComponent&#45;&gt;AppModule</title>
<path fill="none" stroke="black" d="M1961,-122.04C1961,-138.73 1961,-161 1961,-161 1961,-161 1573.7,-161 1573.7,-161"/>
<polygon fill="black" stroke="black" points="1573.7,-157.5 1563.7,-161 1573.7,-164.5 1573.7,-157.5"/>
</g>
<!-- EditprofileComponent -->
<g id="node9" class="node">
<title>EditprofileComponent</title>
<polygon fill="#ffffb3" stroke="black" points="1869.98,-122 1728.02,-122 1728.02,-86 1869.98,-86 1869.98,-122"/>
<text text-anchor="middle" x="1799" y="-99.8" font-family="Times,serif" font-size="14.00">EditprofileComponent</text>
</g>
<!-- EditprofileComponent&#45;&gt;AppModule -->
<g id="edge9" class="edge">
<title>EditprofileComponent&#45;&gt;AppModule</title>
<path fill="none" stroke="black" d="M1799,-122.28C1799,-137.95 1799,-158 1799,-158 1799,-158 1573.77,-158 1573.77,-158"/>
<polygon fill="black" stroke="black" points="1573.77,-154.5 1563.77,-158 1573.77,-161.5 1573.77,-154.5"/>
</g>
<!-- FaqComponent -->
<g id="node10" class="node">
<title>FaqComponent</title>
<polygon fill="#ffffb3" stroke="black" points="1710.33,-122 1607.67,-122 1607.67,-86 1710.33,-86 1710.33,-122"/>
<text text-anchor="middle" x="1659" y="-99.8" font-family="Times,serif" font-size="14.00">FaqComponent</text>
</g>
<!-- FaqComponent&#45;&gt;AppModule -->
<g id="edge10" class="edge">
<title>FaqComponent&#45;&gt;AppModule</title>
<path fill="none" stroke="black" d="M1659,-122.12C1659,-136.78 1659,-155 1659,-155 1659,-155 1573.85,-155 1573.85,-155"/>
<polygon fill="black" stroke="black" points="1573.85,-151.5 1563.85,-155 1573.85,-158.5 1573.85,-151.5"/>
</g>
<!-- FeedbackComponent -->
<g id="node11" class="node">
<title>FeedbackComponent</title>
<polygon fill="#ffffb3" stroke="black" points="1589.47,-122 1454.53,-122 1454.53,-86 1589.47,-86 1589.47,-122"/>
<text text-anchor="middle" x="1522" y="-99.8" font-family="Times,serif" font-size="14.00">FeedbackComponent</text>
</g>
<!-- FeedbackComponent&#45;&gt;AppModule -->
<g id="edge11" class="edge">
<title>FeedbackComponent&#45;&gt;AppModule</title>
<path fill="none" stroke="black" d="M1522,-122.11C1522,-122.11 1522,-140.99 1522,-140.99"/>
<polygon fill="black" stroke="black" points="1518.5,-140.99 1522,-150.99 1525.5,-140.99 1518.5,-140.99"/>
</g>
<!-- HomeComponent -->
<g id="node12" class="node">
<title>HomeComponent</title>
<polygon fill="#ffffb3" stroke="black" points="1436.55,-122 1321.45,-122 1321.45,-86 1436.55,-86 1436.55,-122"/>
<text text-anchor="middle" x="1379" y="-99.8" font-family="Times,serif" font-size="14.00">HomeComponent</text>
</g>
<!-- HomeComponent&#45;&gt;AppModule -->
<g id="edge12" class="edge">
<title>HomeComponent&#45;&gt;AppModule</title>
<path fill="none" stroke="black" d="M1379,-122.12C1379,-136.78 1379,-155 1379,-155 1379,-155 1470.25,-155 1470.25,-155"/>
<polygon fill="black" stroke="black" points="1470.25,-158.5 1480.25,-155 1470.25,-151.5 1470.25,-158.5"/>
</g>
<!-- ListDocumentComponent -->
<g id="node13" class="node">
<title>ListDocumentComponent</title>
<polygon fill="#ffffb3" stroke="black" points="1303.93,-122 1142.07,-122 1142.07,-86 1303.93,-86 1303.93,-122"/>
<text text-anchor="middle" x="1223" y="-99.8" font-family="Times,serif" font-size="14.00">ListDocumentComponent</text>
</g>
<!-- ListDocumentComponent&#45;&gt;AppModule -->
<g id="edge13" class="edge">
<title>ListDocumentComponent&#45;&gt;AppModule</title>
<path fill="none" stroke="black" d="M1223,-122.28C1223,-137.95 1223,-158 1223,-158 1223,-158 1470.11,-158 1470.11,-158"/>
<polygon fill="black" stroke="black" points="1470.11,-161.5 1480.11,-158 1470.11,-154.5 1470.11,-161.5"/>
</g>
<!-- NavbarComponent -->
<g id="node14" class="node">
<title>NavbarComponent</title>
<polygon fill="#ffffb3" stroke="black" points="1124.03,-122 1001.97,-122 1001.97,-86 1124.03,-86 1124.03,-122"/>
<text text-anchor="middle" x="1063" y="-99.8" font-family="Times,serif" font-size="14.00">NavbarComponent</text>
</g>
<!-- NavbarComponent&#45;&gt;AppModule -->
<g id="edge14" class="edge">
<title>NavbarComponent&#45;&gt;AppModule</title>
<path fill="none" stroke="black" d="M1063,-122.04C1063,-138.73 1063,-161 1063,-161 1063,-161 1470.05,-161 1470.05,-161"/>
<polygon fill="black" stroke="black" points="1470.05,-164.5 1480.05,-161 1470.05,-157.5 1470.05,-164.5"/>
</g>
<!-- ProfileComponent -->
<g id="node15" class="node">
<title>ProfileComponent</title>
<polygon fill="#ffffb3" stroke="black" points="983.93,-122 864.07,-122 864.07,-86 983.93,-86 983.93,-122"/>
<text text-anchor="middle" x="924" y="-99.8" font-family="Times,serif" font-size="14.00">ProfileComponent</text>
</g>
<!-- ProfileComponent&#45;&gt;AppModule -->
<g id="edge15" class="edge">
<title>ProfileComponent&#45;&gt;AppModule</title>
<path fill="none" stroke="black" d="M924,-122.3C924,-140.27 924,-165 924,-165 924,-165 1469.95,-165 1469.95,-165"/>
<polygon fill="black" stroke="black" points="1469.95,-168.5 1479.95,-165 1469.95,-161.5 1469.95,-168.5"/>
</g>
<!-- SearchfilterPipe -->
<g id="node16" class="node">
<title>SearchfilterPipe</title>
<polygon fill="#ffffb3" stroke="black" points="846.18,-122 739.82,-122 739.82,-86 846.18,-86 846.18,-122"/>
<text text-anchor="middle" x="793" y="-99.8" font-family="Times,serif" font-size="14.00">SearchfilterPipe</text>
</g>
<!-- SearchfilterPipe&#45;&gt;AppModule -->
<g id="edge16" class="edge">
<title>SearchfilterPipe&#45;&gt;AppModule</title>
<path fill="none" stroke="black" d="M793,-122.17C793,-141.09 793,-168 793,-168 793,-168 1470.19,-168 1470.19,-168"/>
<polygon fill="black" stroke="black" points="1470.19,-171.5 1480.19,-168 1470.19,-164.5 1470.19,-171.5"/>
</g>
<!-- SettingsComponent -->
<g id="node17" class="node">
<title>SettingsComponent</title>
<polygon fill="#ffffb3" stroke="black" points="722.45,-122 595.55,-122 595.55,-86 722.45,-86 722.45,-122"/>
<text text-anchor="middle" x="659" y="-99.8" font-family="Times,serif" font-size="14.00">SettingsComponent</text>
</g>
<!-- SettingsComponent&#45;&gt;AppModule -->
<g id="edge17" class="edge">
<title>SettingsComponent&#45;&gt;AppModule</title>
<path fill="none" stroke="black" d="M659,-122.31C659,-142.15 659,-171 659,-171 659,-171 1470.08,-171 1470.08,-171"/>
<polygon fill="black" stroke="black" points="1470.08,-174.5 1480.08,-171 1470.08,-167.5 1470.08,-174.5"/>
</g>
<!-- SidebarComponent -->
<g id="node18" class="node">
<title>SidebarComponent</title>
<polygon fill="#ffffb3" stroke="black" points="578.1,-122 453.9,-122 453.9,-86 578.1,-86 578.1,-122"/>
<text text-anchor="middle" x="516" y="-99.8" font-family="Times,serif" font-size="14.00">SidebarComponent</text>
</g>
<!-- SidebarComponent&#45;&gt;AppModule -->
<g id="edge18" class="edge">
<title>SidebarComponent&#45;&gt;AppModule</title>
<path fill="none" stroke="black" d="M516,-122.03C516,-142.77 516,-174 516,-174 516,-174 1470.05,-174 1470.05,-174"/>
<polygon fill="black" stroke="black" points="1470.05,-177.5 1480.05,-174 1470.05,-170.5 1470.05,-177.5"/>
</g>
<!-- SignInComponent -->
<g id="node19" class="node">
<title>SignInComponent</title>
<polygon fill="#ffffb3" stroke="black" points="436.17,-122 317.83,-122 317.83,-86 436.17,-86 436.17,-122"/>
<text text-anchor="middle" x="377" y="-99.8" font-family="Times,serif" font-size="14.00">SignInComponent</text>
</g>
<!-- SignInComponent&#45;&gt;AppModule -->
<g id="edge19" class="edge">
<title>SignInComponent&#45;&gt;AppModule</title>
<path fill="none" stroke="black" d="M377,-122.29C377,-144.21 377,-178 377,-178 377,-178 1470.23,-178 1470.23,-178"/>
<polygon fill="black" stroke="black" points="1470.23,-181.5 1480.23,-178 1470.23,-174.5 1470.23,-181.5"/>
</g>
<!-- SignUpComponent -->
<g id="node20" class="node">
<title>SignUpComponent</title>
<polygon fill="#ffffb3" stroke="black" points="300.11,-122 175.89,-122 175.89,-86 300.11,-86 300.11,-122"/>
<text text-anchor="middle" x="238" y="-99.8" font-family="Times,serif" font-size="14.00">SignUpComponent</text>
</g>
<!-- SignUpComponent&#45;&gt;AppModule -->
<g id="edge20" class="edge">
<title>SignUpComponent&#45;&gt;AppModule</title>
<path fill="none" stroke="black" d="M238,-122.25C238,-145.02 238,-181 238,-181 238,-181 1470.01,-181 1470.01,-181"/>
<polygon fill="black" stroke="black" points="1470.01,-184.5 1480.01,-181 1470.01,-177.5 1470.01,-184.5"/>
</g>
<!-- AppComponent  -->
<g id="node23" class="node">
<title>AppComponent </title>
<polygon fill="#80b1d3" stroke="black" points="1576.44,-252 1467.56,-252 1467.56,-216 1576.44,-216 1576.44,-252"/>
<text text-anchor="middle" x="1522" y="-229.8" font-family="Times,serif" font-size="14.00">AppComponent </text>
</g>
<!-- AppModule&#45;&gt;AppComponent  -->
<g id="edge22" class="edge">
<title>AppModule&#45;&gt;AppComponent </title>
<path fill="none" stroke="black" stroke-dasharray="1,5" d="M1522,-187.11C1522,-187.11 1522,-205.99 1522,-205.99"/>
<polygon fill="black" stroke="black" points="1518.5,-205.99 1522,-215.99 1525.5,-205.99 1518.5,-205.99"/>
</g>
<!-- AppRoutingModule -->
<g id="node22" class="node">
<title>AppRoutingModule</title>
<polygon fill="#8dd3c7" stroke="black" points="152.27,-122 149.27,-126 128.27,-126 125.27,-122 23.73,-122 23.73,-86 152.27,-86 152.27,-122"/>
<text text-anchor="middle" x="88" y="-99.8" font-family="Times,serif" font-size="14.00">AppRoutingModule</text>
</g>
<!-- AppRoutingModule&#45;&gt;AppModule -->
<g id="edge21" class="edge">
<title>AppRoutingModule&#45;&gt;AppModule</title>
<path fill="none" stroke="black" d="M88,-122.15C88,-145.76 88,-184 88,-184 88,-184 1470.25,-184 1470.25,-184"/>
<polygon fill="black" stroke="black" points="1470.25,-187.5 1480.25,-184 1470.25,-180.5 1470.25,-187.5"/>
</g>
</g>
</svg>
