<?xml version="1.0" encoding="UTF-8" standalone="no"?>
<!DOCTYPE svg PUBLIC "-//W3C//DTD SVG 1.1//EN"
 "http://www.w3.org/Graphics/SVG/1.1/DTD/svg11.dtd">
<!-- Generated by graphviz version 2.47.0 (20210316.0004)
 -->
<!-- Title: dependencies Pages: 1 -->
<svg width="3129pt" height="284pt"
 viewBox="0.00 0.00 3129.00 284.00" xmlns="http://www.w3.org/2000/svg" xmlns:xlink="http://www.w3.org/1999/xlink">
<g id="graph0" class="graph" transform="scale(1 1) rotate(0) translate(4 280)">
<title>dependencies</title>
<polygon fill="white" stroke="transparent" points="-4,4 -4,-280 3125,-280 3125,4 -4,4"/>
<text text-anchor="start" x="1539.51" y="-42.4" font-family="sans-serif" font-weight="bold" font-size="14.00">Legend</text>
<polygon fill="#ffffb3" stroke="transparent" points="1326.5,-10 1326.5,-30 1346.5,-30 1346.5,-10 1326.5,-10"/>
<text text-anchor="start" x="1350.13" y="-15.4" font-family="sans-serif" font-size="14.00"> &#160;Declarations</text>
<polygon fill="#8dd3c7" stroke="transparent" points="1439.5,-10 1439.5,-30 1459.5,-30 1459.5,-10 1439.5,-10"/>
<text text-anchor="start" x="1463.23" y="-15.4" font-family="sans-serif" font-size="14.00"> &#160;Module</text>
<polygon fill="#80b1d3" stroke="transparent" points="1525.5,-10 1525.5,-30 1545.5,-30 1545.5,-10 1525.5,-10"/>
<text text-anchor="start" x="1549.28" y="-15.4" font-family="sans-serif" font-size="14.00"> &#160;Bootstrap</text>
<polygon fill="#fdb462" stroke="transparent" points="1622.5,-10 1622.5,-30 1642.5,-30 1642.5,-10 1622.5,-10"/>
<text text-anchor="start" x="1646.17" y="-15.4" font-family="sans-serif" font-size="14.00"> &#160;Providers</text>
<polygon fill="#fb8072" stroke="transparent" points="1718.5,-10 1718.5,-30 1738.5,-30 1738.5,-10 1718.5,-10"/>
<text text-anchor="start" x="1742.23" y="-15.4" font-family="sans-serif" font-size="14.00"> &#160;Exports</text>
<g id="clust1" class="cluster">
<title>cluster_AppModule</title>
<polygon fill="none" stroke="black" stroke-dasharray="1,5" points="8,-70 8,-268 3113,-268 3113,-70 8,-70"/>
</g>
<g id="clust23" class="cluster">
<title>cluster_AppModule_imports</title>
<polygon fill="none" stroke="black" points="2961,-78 2961,-130 3105,-130 3105,-78 2961,-78"/>
</g>
<g id="clust25" class="cluster">
<title>cluster_AppModule_bootstrap</title>
<polygon fill="none" stroke="black" points="1445,-208 1445,-260 1569,-260 1569,-208 1445,-208"/>
</g>
<g id="clust2" class="cluster">
<title>cluster_AppModule_declarations</title>
<polygon fill="none" stroke="black" points="16,-78 16,-130 2953,-130 2953,-78 16,-78"/>
</g>
<!-- AboutUsComponent -->
<g id="node1" class="node">
<title>AboutUsComponent</title>
<polygon fill="#ffffb3" stroke="black" points="2944.88,-122 2813.12,-122 2813.12,-86 2944.88,-86 2944.88,-122"/>
<text text-anchor="middle" x="2879" y="-99.8" font-family="Times,serif" font-size="14.00">AboutUsComponent</text>
</g>
<!-- AppModule -->
<g id="node21" class="node">
<title>AppModule</title>
<polygon fill="#8dd3c7" stroke="black" points="1548.66,-187 1545.66,-191 1524.66,-191 1521.66,-187 1465.34,-187 1465.34,-151 1548.66,-151 1548.66,-187"/>
<text text-anchor="middle" x="1507" y="-164.8" font-family="Times,serif" font-size="14.00">AppModule</text>
</g>
<!-- AboutUsComponent&#45;&gt;AppModule -->
<g id="edge1" class="edge">
<title>AboutUsComponent&#45;&gt;AppModule</title>
<path fill="none" stroke="black" d="M2879,-122.25C2879,-145.02 2879,-181 2879,-181 2879,-181 1558.81,-181 1558.81,-181"/>
<polygon fill="black" stroke="black" points="1558.81,-177.5 1548.81,-181 1558.81,-184.5 1558.81,-177.5"/>
</g>
<!-- AddDocumentComponent -->
<g id="node2" class="node">
<title>AddDocumentComponent</title>
<polygon fill="#ffffb3" stroke="black" points="2794.76,-122 2631.24,-122 2631.24,-86 2794.76,-86 2794.76,-122"/>
<text text-anchor="middle" x="2713" y="-99.8" font-family="Times,serif" font-size="14.00">AddDocumentComponent</text>
</g>
<!-- AddDocumentComponent&#45;&gt;AppModule -->
<g id="edge2" class="edge">
<title>AddDocumentComponent&#45;&gt;AppModule</title>
<path fill="none" stroke="black" d="M2713,-122.29C2713,-144.21 2713,-178 2713,-178 2713,-178 1558.86,-178 1558.86,-178"/>
<polygon fill="black" stroke="black" points="1558.86,-174.5 1548.86,-178 1558.86,-181.5 1558.86,-174.5"/>
</g>
<!-- AppComponent -->
<g id="node3" class="node">
<title>AppComponent</title>
<polygon fill="#ffffb3" stroke="black" points="2612.94,-122 2507.06,-122 2507.06,-86 2612.94,-86 2612.94,-122"/>
<text text-anchor="middle" x="2560" y="-99.8" font-family="Times,serif" font-size="14.00">AppComponent</text>
</g>
<!-- AppComponent&#45;&gt;AppModule -->
<g id="edge3" class="edge">
<title>AppComponent&#45;&gt;AppModule</title>
<path fill="none" stroke="black" d="M2560,-122.03C2560,-142.77 2560,-174 2560,-174 2560,-174 1558.93,-174 1558.93,-174"/>
<polygon fill="black" stroke="black" points="1558.93,-170.5 1548.93,-174 1558.93,-177.5 1558.93,-170.5"/>
</g>
<!-- ContactComponent -->
<g id="node4" class="node">
<title>ContactComponent</title>
<polygon fill="#ffffb3" stroke="black" points="2489.38,-122 2364.62,-122 2364.62,-86 2489.38,-86 2489.38,-122"/>
<text text-anchor="middle" x="2427" y="-99.8" font-family="Times,serif" font-size="14.00">ContactComponent</text>
</g>
<!-- ContactComponent&#45;&gt;AppModule -->
<g id="edge4" class="edge">
<title>ContactComponent&#45;&gt;AppModule</title>
<path fill="none" stroke="black" d="M2427,-122.31C2427,-142.15 2427,-171 2427,-171 2427,-171 1558.92,-171 1558.92,-171"/>
<polygon fill="black" stroke="black" points="1558.92,-167.5 1548.92,-171 1558.92,-174.5 1558.92,-167.5"/>
</g>
<!-- DashboardComponent -->
<g id="node5" class="node">
<title>DashboardComponent</title>
<polygon fill="#ffffb3" stroke="black" points="2346.97,-122 2205.03,-122 2205.03,-86 2346.97,-86 2346.97,-122"/>
<text text-anchor="middle" x="2276" y="-99.8" font-family="Times,serif" font-size="14.00">DashboardComponent</text>
</g>
<!-- DashboardComponent&#45;&gt;AppModule -->
<g id="edge5" class="edge">
<title>DashboardComponent&#45;&gt;AppModule</title>
<path fill="none" stroke="black" d="M2276,-122.17C2276,-141.09 2276,-168 2276,-168 2276,-168 1558.89,-168 1558.89,-168"/>
<polygon fill="black" stroke="black" points="1558.89,-164.5 1548.89,-168 1558.89,-171.5 1558.89,-164.5"/>
</g>
<!-- DashnavbarComponent -->
<g id="node6" class="node">
<title>DashnavbarComponent</title>
<polygon fill="#ffffb3" stroke="black" points="2187.19,-122 2038.81,-122 2038.81,-86 2187.19,-86 2187.19,-122"/>
<text text-anchor="middle" x="2113" y="-99.8" font-family="Times,serif" font-size="14.00">DashnavbarComponent</text>
</g>
<!-- DashnavbarComponent&#45;&gt;AppModule -->
<g id="edge6" class="edge">
<title>DashnavbarComponent&#45;&gt;AppModule</title>
<path fill="none" stroke="black" d="M2113,-122.3C2113,-140.27 2113,-165 2113,-165 2113,-165 1559.13,-165 1559.13,-165"/>
<polygon fill="black" stroke="black" points="1559.13,-161.5 1549.13,-165 1559.13,-168.5 1559.13,-161.5"/>
</g>
<!-- DetailsComponent -->
<g id="node7" class="node">
<title>DetailsComponent</title>
<polygon fill="#ffffb3" stroke="black" points="2020.48,-122 1899.52,-122 1899.52,-86 2020.48,-86 2020.48,-122"/>
<text text-anchor="middle" x="1960" y="-99.8" font-family="Times,serif" font-size="14.00">DetailsComponent</text>
</g>
<!-- DetailsComponent&#45;&gt;AppModule -->
<g id="edge7" class="edge">
<title>DetailsComponent&#45;&gt;AppModule</title>
<path fill="none" stroke="black" d="M1960,-122.04C1960,-138.73 1960,-161 1960,-161 1960,-161 1558.81,-161 1558.81,-161"/>
<polygon fill="black" stroke="black" points="1558.81,-157.5 1548.81,-161 1558.81,-164.5 1558.81,-157.5"/>
</g>
<!-- DocumentsComponent -->
<g id="node8" class="node">
<title>DocumentsComponent</title>
<polygon fill="#ffffb3" stroke="black" points="1881.59,-122 1736.41,-122 1736.41,-86 1881.59,-86 1881.59,-122"/>
<text text-anchor="middle" x="1809" y="-99.8" font-family="Times,serif" font-size="14.00">DocumentsComponent</text>
</g>
<!-- DocumentsComponent&#45;&gt;AppModule -->
<g id="edge8" class="edge">
<title>DocumentsComponent&#45;&gt;AppModule</title>
<path fill="none" stroke="black" d="M1809,-122.28C1809,-137.95 1809,-158 1809,-158 1809,-158 1558.67,-158 1558.67,-158"/>
<polygon fill="black" stroke="black" points="1558.67,-154.5 1548.67,-158 1558.67,-161.5 1558.67,-154.5"/>
</g>
<!-- EditprofileComponent -->
<g id="node9" class="node">
<title>EditprofileComponent</title>
<polygon fill="#ffffb3" stroke="black" points="1717.98,-122 1576.02,-122 1576.02,-86 1717.98,-86 1717.98,-122"/>
<text text-anchor="middle" x="1647" y="-99.8" font-family="Times,serif" font-size="14.00">EditprofileComponent</text>
</g>
<!-- EditprofileComponent&#45;&gt;AppModule -->
<g id="edge9" class="edge">
<title>EditprofileComponent&#45;&gt;AppModule</title>
<path fill="none" stroke="black" d="M1647,-122.12C1647,-136.78 1647,-155 1647,-155 1647,-155 1559,-155 1559,-155"/>
<polygon fill="black" stroke="black" points="1559,-151.5 1549,-155 1559,-158.5 1559,-151.5"/>
</g>
<!-- FaqComponent -->
<g id="node10" class="node">
<title>FaqComponent</title>
<polygon fill="#ffffb3" stroke="black" points="1558.33,-122 1455.67,-122 1455.67,-86 1558.33,-86 1558.33,-122"/>
<text text-anchor="middle" x="1507" y="-99.8" font-family="Times,serif" font-size="14.00">FaqComponent</text>
</g>
<!-- FaqComponent&#45;&gt;AppModule -->
<g id="edge10" class="edge">
<title>FaqComponent&#45;&gt;AppModule</title>
<path fill="none" stroke="black" d="M1507,-122.11C1507,-122.11 1507,-140.99 1507,-140.99"/>
<polygon fill="black" stroke="black" points="1503.5,-140.99 1507,-150.99 1510.5,-140.99 1503.5,-140.99"/>
</g>
<!-- FeedbackComponent -->
<g id="node11" class="node">
<title>FeedbackComponent</title>
<polygon fill="#ffffb3" stroke="black" points="1437.47,-122 1302.53,-122 1302.53,-86 1437.47,-86 1437.47,-122"/>
<text text-anchor="middle" x="1370" y="-99.8" font-family="Times,serif" font-size="14.00">FeedbackComponent</text>
</g>
<!-- FeedbackComponent&#45;&gt;AppModule -->
<g id="edge11" class="edge">
<title>FeedbackComponent&#45;&gt;AppModule</title>
<path fill="none" stroke="black" d="M1370,-122.12C1370,-136.78 1370,-155 1370,-155 1370,-155 1455.15,-155 1455.15,-155"/>
<polygon fill="black" stroke="black" points="1455.15,-158.5 1465.15,-155 1455.15,-151.5 1455.15,-158.5"/>
</g>
<!-- HomeComponent -->
<g id="node12" class="node">
<title>HomeComponent</title>
<polygon fill="#ffffb3" stroke="black" points="1284.55,-122 1169.45,-122 1169.45,-86 1284.55,-86 1284.55,-122"/>
<text text-anchor="middle" x="1227" y="-99.8" font-family="Times,serif" font-size="14.00">HomeComponent</text>
</g>
<!-- HomeComponent&#45;&gt;AppModule -->
<g id="edge12" class="edge">
<title>HomeComponent&#45;&gt;AppModule</title>
<path fill="none" stroke="black" d="M1227,-122.28C1227,-137.95 1227,-158 1227,-158 1227,-158 1455.08,-158 1455.08,-158"/>
<polygon fill="black" stroke="black" points="1455.08,-161.5 1465.08,-158 1455.08,-154.5 1455.08,-161.5"/>
</g>
<!-- ListDocumentComponent -->
<g id="node13" class="node">
<title>ListDocumentComponent</title>
<polygon fill="#ffffb3" stroke="black" points="1151.93,-122 990.07,-122 990.07,-86 1151.93,-86 1151.93,-122"/>
<text text-anchor="middle" x="1071" y="-99.8" font-family="Times,serif" font-size="14.00">ListDocumentComponent</text>
</g>
<!-- ListDocumentComponent&#45;&gt;AppModule -->
<g id="edge13" class="edge">
<title>ListDocumentComponent&#45;&gt;AppModule</title>
<path fill="none" stroke="black" d="M1071,-122.04C1071,-138.73 1071,-161 1071,-161 1071,-161 1455.19,-161 1455.19,-161"/>
<polygon fill="black" stroke="black" points="1455.19,-164.5 1465.19,-161 1455.19,-157.5 1455.19,-164.5"/>
</g>
<!-- NavbarComponent -->
<g id="node14" class="node">
<title>NavbarComponent</title>
<polygon fill="#ffffb3" stroke="black" points="972.03,-122 849.97,-122 849.97,-86 972.03,-86 972.03,-122"/>
<text text-anchor="middle" x="911" y="-99.8" font-family="Times,serif" font-size="14.00">NavbarComponent</text>
</g>
<!-- NavbarComponent&#45;&gt;AppModule -->
<g id="edge14" class="edge">
<title>NavbarComponent&#45;&gt;AppModule</title>
<path fill="none" stroke="black" d="M911,-122.3C911,-140.27 911,-165 911,-165 911,-165 1455.09,-165 1455.09,-165"/>
<polygon fill="black" stroke="black" points="1455.09,-168.5 1465.09,-165 1455.09,-161.5 1455.09,-168.5"/>
</g>
<!-- ProfileComponent -->
<g id="node15" class="node">
<title>ProfileComponent</title>
<polygon fill="#ffffb3" stroke="black" points="831.93,-122 712.07,-122 712.07,-86 831.93,-86 831.93,-122"/>
<text text-anchor="middle" x="772" y="-99.8" font-family="Times,serif" font-size="14.00">ProfileComponent</text>
</g>
<!-- ProfileComponent&#45;&gt;AppModule -->
<g id="edge15" class="edge">
<title>ProfileComponent&#45;&gt;AppModule</title>
<path fill="none" stroke="black" d="M772,-122.17C772,-141.09 772,-168 772,-168 772,-168 1455.11,-168 1455.11,-168"/>
<polygon fill="black" stroke="black" points="1455.11,-171.5 1465.11,-168 1455.11,-164.5 1455.11,-171.5"/>
</g>
<!-- SearchfilterPipe -->
<g id="node16" class="node">
<title>SearchfilterPipe</title>
<polygon fill="#ffffb3" stroke="black" points="694.18,-122 587.82,-122 587.82,-86 694.18,-86 694.18,-122"/>
<text text-anchor="middle" x="641" y="-99.8" font-family="Times,serif" font-size="14.00">SearchfilterPipe</text>
</g>
<!-- SearchfilterPipe&#45;&gt;AppModule -->
<g id="edge16" class="edge">
<title>SearchfilterPipe&#45;&gt;AppModule</title>
<path fill="none" stroke="black" d="M641,-122.31C641,-142.15 641,-171 641,-171 641,-171 1455.23,-171 1455.23,-171"/>
<polygon fill="black" stroke="black" points="1455.23,-174.5 1465.23,-171 1455.23,-167.5 1455.23,-174.5"/>
</g>
<!-- SettingsComponent -->
<g id="node17" class="node">
<title>SettingsComponent</title>
<polygon fill="#ffffb3" stroke="black" points="570.45,-122 443.55,-122 443.55,-86 570.45,-86 570.45,-122"/>
<text text-anchor="middle" x="507" y="-99.8" font-family="Times,serif" font-size="14.00">SettingsComponent</text>
</g>
<!-- SettingsComponent&#45;&gt;AppModule -->
<g id="edge17" class="edge">
<title>SettingsComponent&#45;&gt;AppModule</title>
<path fill="none" stroke="black" d="M507,-122.03C507,-142.77 507,-174 507,-174 507,-174 1455.3,-174 1455.3,-174"/>
<polygon fill="black" stroke="black" points="1455.3,-177.5 1465.3,-174 1455.3,-170.5 1455.3,-177.5"/>
</g>
<!-- SidebarComponent -->
<g id="node18" class="node">
<title>SidebarComponent</title>
<polygon fill="#ffffb3" stroke="black" points="426.1,-122 301.9,-122 301.9,-86 426.1,-86 426.1,-122"/>
<text text-anchor="middle" x="364" y="-99.8" font-family="Times,serif" font-size="14.00">SidebarComponent</text>
</g>
<!-- SidebarComponent&#45;&gt;AppModule -->
<g id="edge18" class="edge">
<title>SidebarComponent&#45;&gt;AppModule</title>
<path fill="none" stroke="black" d="M364,-122.29C364,-144.21 364,-178 364,-178 364,-178 1455.31,-178 1455.31,-178"/>
<polygon fill="black" stroke="black" points="1455.31,-181.5 1465.31,-178 1455.31,-174.5 1455.31,-181.5"/>
</g>
<!-- SignInComponent -->
<g id="node19" class="node">
<title>SignInComponent</title>
<polygon fill="#ffffb3" stroke="black" points="284.17,-122 165.83,-122 165.83,-86 284.17,-86 284.17,-122"/>
<text text-anchor="middle" x="225" y="-99.8" font-family="Times,serif" font-size="14.00">SignInComponent</text>
</g>
<!-- SignInComponent&#45;&gt;AppModule -->
<g id="edge19" class="edge">
<title>SignInComponent&#45;&gt;AppModule</title>
<path fill="none" stroke="black" d="M225,-122.25C225,-145.02 225,-181 225,-181 225,-181 1455.07,-181 1455.07,-181"/>
<polygon fill="black" stroke="black" points="1455.07,-184.5 1465.07,-181 1455.07,-177.5 1455.07,-184.5"/>
</g>
<!-- SignUpComponent -->
<g id="node20" class="node">
<title>SignUpComponent</title>
<polygon fill="#ffffb3" stroke="black" points="148.11,-122 23.89,-122 23.89,-86 148.11,-86 148.11,-122"/>
<text text-anchor="middle" x="86" y="-99.8" font-family="Times,serif" font-size="14.00">SignUpComponent</text>
</g>
<!-- SignUpComponent&#45;&gt;AppModule -->
<g id="edge20" class="edge">
<title>SignUpComponent&#45;&gt;AppModule</title>
<path fill="none" stroke="black" d="M86,-122.15C86,-145.76 86,-184 86,-184 86,-184 1455.24,-184 1455.24,-184"/>
<polygon fill="black" stroke="black" points="1455.24,-187.5 1465.24,-184 1455.24,-180.5 1455.24,-187.5"/>
</g>
<!-- AppComponent  -->
<g id="node23" class="node">
<title>AppComponent </title>
<polygon fill="#80b1d3" stroke="black" points="1561.44,-252 1452.56,-252 1452.56,-216 1561.44,-216 1561.44,-252"/>
<text text-anchor="middle" x="1507" y="-229.8" font-family="Times,serif" font-size="14.00">AppComponent </text>
</g>
<!-- AppModule&#45;&gt;AppComponent  -->
<g id="edge22" class="edge">
<title>AppModule&#45;&gt;AppComponent </title>
<path fill="none" stroke="black" stroke-dasharray="1,5" d="M1507,-187.11C1507,-187.11 1507,-205.99 1507,-205.99"/>
<polygon fill="black" stroke="black" points="1503.5,-205.99 1507,-215.99 1510.5,-205.99 1503.5,-205.99"/>
</g>
<!-- AppRoutingModule -->
<g id="node22" class="node">
<title>AppRoutingModule</title>
<polygon fill="#8dd3c7" stroke="black" points="3097.27,-122 3094.27,-126 3073.27,-126 3070.27,-122 2968.73,-122 2968.73,-86 3097.27,-86 3097.27,-122"/>
<text text-anchor="middle" x="3033" y="-99.8" font-family="Times,serif" font-size="14.00">AppRoutingModule</text>
</g>
<!-- AppRoutingModule&#45;&gt;AppModule -->
<g id="edge21" class="edge">
<title>AppRoutingModule&#45;&gt;AppModule</title>
<path fill="none" stroke="black" d="M3033,-122.15C3033,-145.76 3033,-184 3033,-184 3033,-184 1559.01,-184 1559.01,-184"/>
<polygon fill="black" stroke="black" points="1559.01,-180.5 1549.01,-184 1559.01,-187.5 1559.01,-180.5"/>
</g>
</g>
</svg>
